<svg width="242" height="200" viewBox="0 0 242 200" fill="none" xmlns="http://www.w3.org/2000/svg">
<g clip-path="url(#clip0_110_495)">
<path d="M87.485 17.8831C103.235 -5.60805 137.784 -5.60804 153.534 17.8831L233.956 137.832C251.667 164.248 232.736 199.734 200.932 199.734H40.087C8.28325 199.734 -10.6485 164.248 7.06257 137.832L87.485 17.8831Z" fill="#E23703"/>
<ellipse cx="120.51" cy="157.489" rx="9.94009" ry="9.94009" fill="white"/>
<path d="M108.62 126.675C110.608 133.434 117.4 134.793 120.548 134.627C123.53 134.627 129.991 133.036 131.979 126.675C133.967 120.313 138.44 87.9085 140.428 72.5013C140.759 67.6969 139.335 58.0882 130.985 58.0882H111.105C101.96 58.0882 100.336 67.6969 100.668 72.5013C102.49 87.7428 106.632 119.916 108.62 126.675Z" fill="white"/>
</g>
<defs>
<clipPath id="clip0_110_495">
<rect width="241.176" height="200" fill="white" transform="translate(0.411621)"/>
</clipPath>
</defs>
</svg>
