<svg width="24" height="24" viewBox="0 0 24 24" fill="currentColor" xmlns="http://www.w3.org/2000/svg">
<circle cx="12" cy="12" r="12" />
<path d="M18.0975 6.105C17.8584 6.11344 17.639 6.24 17.5125 6.4425L10.7399 16.8037L6.35245 13.0125C6.16401 12.817 5.88135 12.7439 5.6212 12.8255C5.36245 12.9056 5.16979 13.125 5.12479 13.3922C5.07979 13.6608 5.18807 13.9308 5.40745 14.0925L10.4249 18.435C10.5824 18.5686 10.7906 18.6277 10.9945 18.5981C11.1998 18.5672 11.3812 18.4505 11.4937 18.2775L18.7275 7.23C18.8821 7.00359 18.8948 6.71109 18.7612 6.47203C18.6276 6.23437 18.3703 6.09234 18.0975 6.105Z" fill="#050920" stroke="#050920" stroke-width="0.5"/>
</svg>
